<svg width="410" height="387" viewBox="0 0 471 387" fill="none" xmlns="http://www.w3.org/2000/svg">
<g style="mix-blend-mode:overlay">
<rect x="139.5" y="85.1436" width="75.8651" height="205.367" rx="37.9325" transform="rotate(0.430868 139.5 85.1436)" fill="url(#paint0_linear_410_231)"/>
<rect x="25.4998" y="18.4033" width="78.1133" height="231.554" rx="39.0566" transform="rotate(0.430868 25.4998 18.4033)" fill="url(#paint1_linear_410_231)"/>
<rect x="27.4999" y="277.905" width="72.5302" height="73.9677" rx="36.2651" transform="rotate(0.430868 27.4999 277.905)" fill="url(#paint2_linear_410_231)"/>
<rect x="253.5" y="151.332" width="72.5302" height="73.9677" rx="36.2651" transform="rotate(0.430868 253.5 151.332)" fill="url(#paint3_linear_410_231)"/>
</g>
<g style="mix-blend-mode:lighten" opacity="0.9">
<rect x="213.5" y="63.3359" width="75.8651" height="205.367" rx="37.9325" transform="rotate(-179.844 213.5 63.3359)" fill="url(#paint4_linear_410_231)"/>
<rect x="327.5" y="129.524" width="78.1133" height="231.554" rx="39.0566" transform="rotate(-179.844 327.5 129.524)" fill="url(#paint5_linear_410_231)"/>
</g>
<defs>
<linearGradient id="paint0_linear_410_231" x1="177.432" y1="85.1436" x2="177.432" y2="290.51" gradientUnits="userSpaceOnUse">
<stop stop-color="#4FE9C7"/>
<stop offset="0.515625" stop-color="#35D8DF"/>
<stop offset="1" stop-color="#0ACBF9"/>
</linearGradient>
<linearGradient id="paint1_linear_410_231" x1="64.5564" y1="18.4033" x2="64.5564" y2="249.958" gradientUnits="userSpaceOnUse">
<stop offset="0.0677083" stop-color="#80F5A7"/>
<stop offset="0.510417" stop-color="#5DE9C0"/>
<stop offset="1" stop-color="#33DFE1"/>
</linearGradient>
<linearGradient id="paint2_linear_410_231" x1="63.765" y1="277.905" x2="61.601" y2="385.821" gradientUnits="userSpaceOnUse">
<stop stop-color="#11CDF3"/>
<stop offset="1" stop-color="#21D5E6"/>
</linearGradient>
<linearGradient id="paint3_linear_410_231" x1="289.765" y1="151.332" x2="287.601" y2="259.248" gradientUnits="userSpaceOnUse">
<stop stop-color="#0DCEF6"/>
<stop offset="1" stop-color="#21D5E6"/>
</linearGradient>
<linearGradient id="paint4_linear_410_231" x1="251.432" y1="63.3359" x2="251.432" y2="268.703" gradientUnits="userSpaceOnUse">
<stop stop-color="#4FE9C7"/>
<stop offset="0.515625" stop-color="#35D8DF"/>
<stop offset="1" stop-color="#0ACBF9"/>
</linearGradient>
<linearGradient id="paint5_linear_410_231" x1="366.556" y1="129.524" x2="366.556" y2="361.079" gradientUnits="userSpaceOnUse">
<stop offset="0.0677083" stop-color="#80F5A7"/>
<stop offset="0.510417" stop-color="#5DE9C0"/>
<stop offset="1" stop-color="#33DFE1"/>
</linearGradient>
</defs>
</svg>
