<svg width="473" height="387" viewBox="0 0 473 387" fill="none" xmlns="http://www.w3.org/2000/svg">
<rect x="141.5" y="85.1426" width="75.8651" height="205.367" rx="37.9325" transform="rotate(0.430868 141.5 85.1426)" fill="url(#paint0_linear_427_235)"/>
<rect x="27.4998" y="18.4023" width="78.1133" height="231.554" rx="39.0566" transform="rotate(0.430868 27.4998 18.4023)" fill="url(#paint1_linear_427_235)"/>
<rect x="29.4998" y="277.904" width="72.5302" height="73.9677" rx="36.2651" transform="rotate(0.430868 29.4998 277.904)" fill="url(#paint2_linear_427_235)"/>
<rect x="255.5" y="151.332" width="72.5302" height="73.9677" rx="36.2651" transform="rotate(0.430868 255.5 151.332)" fill="url(#paint3_linear_427_235)"/>
<g style="mix-blend-mode:lighten" opacity="0.9">
<rect x="215.5" y="63.3359" width="75.8651" height="205.367" rx="37.9325" transform="rotate(-179.844 215.5 63.3359)" fill="url(#paint4_linear_427_235)"/>
<rect x="329.5" y="129.525" width="78.1133" height="231.554" rx="39.0566" transform="rotate(-179.844 329.5 129.525)" fill="url(#paint5_linear_427_235)"/>
</g>
<defs>
<linearGradient id="paint0_linear_427_235" x1="179.432" y1="85.1426" x2="179.432" y2="290.509" gradientUnits="userSpaceOnUse">
<stop stop-color="#4FE9C7"/>
<stop offset="0.515625" stop-color="#35D8DF"/>
<stop offset="1" stop-color="#0ACBF9"/>
</linearGradient>
<linearGradient id="paint1_linear_427_235" x1="66.5564" y1="18.4023" x2="66.5564" y2="249.957" gradientUnits="userSpaceOnUse">
<stop offset="0.0677083" stop-color="#80F5A7"/>
<stop offset="0.510417" stop-color="#5DE9C0"/>
<stop offset="1" stop-color="#33DFE1"/>
</linearGradient>
<linearGradient id="paint2_linear_427_235" x1="65.7649" y1="277.904" x2="63.6009" y2="385.82" gradientUnits="userSpaceOnUse">
<stop stop-color="#11CDF3"/>
<stop offset="1" stop-color="#21D5E6"/>
</linearGradient>
<linearGradient id="paint3_linear_427_235" x1="291.765" y1="151.332" x2="289.601" y2="259.248" gradientUnits="userSpaceOnUse">
<stop stop-color="#0DCEF6"/>
<stop offset="1" stop-color="#21D5E6"/>
</linearGradient>
<linearGradient id="paint4_linear_427_235" x1="253.432" y1="63.3359" x2="253.432" y2="268.703" gradientUnits="userSpaceOnUse">
<stop stop-color="#4FE9C7"/>
<stop offset="0.515625" stop-color="#35D8DF"/>
<stop offset="1" stop-color="#0ACBF9"/>
</linearGradient>
<linearGradient id="paint5_linear_427_235" x1="368.556" y1="129.525" x2="368.556" y2="361.08" gradientUnits="userSpaceOnUse">
<stop offset="0.0677083" stop-color="#80F5A7"/>
<stop offset="0.510417" stop-color="#5DE9C0"/>
<stop offset="1" stop-color="#33DFE1"/>
</linearGradient>
</defs>
</svg>
