<svg width="304" height="283" viewBox="0 0 304 283" fill="none" xmlns="http://www.w3.org/2000/svg">
<rect x="195.981" y="98.1177" width="64.8133" height="175.45" rx="32.4067" transform="rotate(30.1559 195.981 98.1177)" fill="url(#paint0_linear_33_119)"/>
<rect x="139.127" y="-6.10352e-05" width="66.734" height="197.822" rx="33.367" transform="rotate(30.1559 139.127 -6.10352e-05)" fill="url(#paint1_linear_33_119)"/>
<rect x="139.127" y="-6.10352e-05" width="66.734" height="197.822" rx="33.367" transform="rotate(30.1559 139.127 -6.10352e-05)" fill="url(#paint2_linear_33_119)"/>
<rect x="31.7451" y="193.978" width="61.9643" height="63.1924" rx="30.9822" transform="rotate(30.1559 31.7451 193.978)" fill="url(#paint3_linear_33_119)"/>
<rect x="249.828" y="193.978" width="61.9643" height="63.1924" rx="30.9822" transform="rotate(30.1559 249.828 193.978)" fill="url(#paint4_linear_33_119)"/>
<defs>
<linearGradient id="paint0_linear_33_119" x1="228.388" y1="98.1177" x2="228.388" y2="273.568" gradientUnits="userSpaceOnUse">
<stop stop-color="#4FE9C7"/>
<stop offset="0.515625" stop-color="#35D8DF"/>
<stop offset="1" stop-color="#0ACBF9"/>
</linearGradient>
<linearGradient id="paint1_linear_33_119" x1="172.494" y1="-6.10352e-05" x2="172.494" y2="197.822" gradientUnits="userSpaceOnUse">
<stop offset="0.0677083" stop-color="#80F5A7"/>
<stop offset="0.510417" stop-color="#5DE9C0"/>
<stop offset="1" stop-color="#33DFE1"/>
</linearGradient>
<linearGradient id="paint2_linear_33_119" x1="172.494" y1="-6.10352e-05" x2="172.494" y2="197.822" gradientUnits="userSpaceOnUse">
<stop offset="0.0677083" stop-color="#80F5A7"/>
<stop offset="0.510417" stop-color="#5DE9C0"/>
<stop offset="1" stop-color="#33DFE1"/>
</linearGradient>
<linearGradient id="paint3_linear_33_119" x1="62.7273" y1="193.978" x2="60.8785" y2="286.173" gradientUnits="userSpaceOnUse">
<stop stop-color="#11CDF3"/>
<stop offset="1" stop-color="#21D5E6"/>
</linearGradient>
<linearGradient id="paint4_linear_33_119" x1="280.81" y1="193.978" x2="278.961" y2="286.173" gradientUnits="userSpaceOnUse">
<stop stop-color="#0DCEF6"/>
<stop offset="1" stop-color="#21D5E6"/>
</linearGradient>
</defs>
</svg>
