<svg width="1813" height="546" viewBox="0 0 1813 546" fill="none" xmlns="http://www.w3.org/2000/svg">
<path d="M148.94 200.014C133.048 200.014 119.348 197.457 107.84 192.342C96.5144 187.045 86.1024 179.099 76.6037 168.504L104.552 140.83C110.762 147.954 117.612 153.525 125.102 157.544C132.774 161.38 141.633 163.298 151.68 163.298C160.813 163.298 167.846 161.654 172.778 158.366C177.892 155.078 180.45 150.511 180.45 144.666C180.45 139.369 178.806 135.076 175.518 131.788C172.23 128.5 167.846 125.669 162.366 123.294C157.068 120.919 151.132 118.636 144.556 116.444C138.162 114.252 131.769 111.786 125.376 109.046C118.982 106.123 113.046 102.561 107.566 98.36C102.268 93.976 97.9757 88.5873 94.6877 82.194C91.3997 75.618 89.7557 67.398 89.7557 57.534C89.7557 45.6607 92.5871 35.4313 98.2497 26.846C104.095 18.2607 112.132 11.776 122.362 7.39199C132.591 2.82533 144.373 0.541998 157.708 0.541998C171.225 0.541998 183.555 2.91666 194.698 7.66599C206.023 12.4153 215.339 18.9 222.646 27.12L194.698 54.794C188.852 48.766 182.916 44.2907 176.888 41.368C171.042 38.4453 164.375 36.984 156.886 36.984C149.396 36.984 143.46 38.4453 139.076 41.368C134.692 44.108 132.5 48.1267 132.5 53.424C132.5 58.356 134.144 62.3747 137.432 65.48C140.72 68.4027 145.012 70.96 150.31 73.152C155.79 75.344 161.726 77.536 168.12 79.728C174.696 81.92 181.18 84.4773 187.574 87.4C193.967 90.3227 199.812 94.0673 205.11 98.634C210.59 103.018 214.974 108.681 218.262 115.622C221.55 122.381 223.194 130.783 223.194 140.83C223.194 159.279 216.618 173.801 203.466 184.396C190.314 194.808 172.138 200.014 148.94 200.014ZM290.773 197V6.29599H333.791V197H290.773ZM230.219 41.094V3.55599H394.345V41.094H230.219ZM380.031 197L456.751 3.55599H495.659L571.557 197H526.073L467.985 36.436H483.603L424.693 197H380.031ZM423.597 161.928V126.856H529.087V161.928H423.597ZM626.866 124.938L552.338 3.55599H602.206L659.472 101.648H627.414L684.68 3.55599H733.452L658.376 124.938H626.866ZM621.66 197V105.21H664.678V197H621.66ZM777.652 197L854.372 3.55599H893.28L969.178 197H923.694L865.606 36.436H881.224L822.314 197H777.652ZM821.218 161.928V126.856H926.708V161.928H821.218ZM989.647 197V3.55599H1032.66V197H989.647ZM1109.38 197V3.55599H1152.68V197H1109.38ZM1015.4 116.17V78.906H1123.63V116.17H1015.4ZM1189.8 197V3.55599H1232.81V197H1189.8ZM1222.68 197V159.736H1328.71V197H1222.68ZM1222.68 116.17V80.276H1319.12V116.17H1222.68ZM1222.68 40.546V3.55599H1327.34V40.546H1222.68ZM1343.85 197L1420.57 3.55599H1459.48L1535.37 197H1489.89L1431.8 36.436H1447.42L1388.51 197H1343.85ZM1387.41 161.928V126.856H1492.9V161.928H1387.41ZM1584.89 197V159.188H1632.84C1644.53 159.188 1654.76 156.905 1663.52 152.338C1672.29 147.589 1679.05 140.739 1683.8 131.788C1688.55 122.837 1690.92 112.243 1690.92 100.004C1690.92 87.7653 1688.46 77.262 1683.53 68.494C1678.78 59.726 1672.02 52.9673 1663.25 48.218C1654.66 43.4687 1644.53 41.094 1632.84 41.094H1583.52V3.55599H1633.38C1648 3.55599 1661.42 5.93066 1673.66 10.68C1686.08 15.2467 1696.86 21.914 1705.99 30.682C1715.31 39.2673 1722.43 49.4967 1727.37 61.37C1732.48 73.0607 1735.04 86.03 1735.04 100.278C1735.04 114.343 1732.48 127.313 1727.37 139.186C1722.43 151.059 1715.4 161.289 1706.27 169.874C1697.13 178.459 1686.36 185.127 1673.94 189.876C1661.7 194.625 1648.36 197 1633.93 197H1584.89ZM1555.84 197V3.55599H1598.86V197H1555.84ZM103.184 545.288C88.5705 545.288 75.0532 542.731 62.6319 537.616C50.3932 532.501 39.6159 525.377 30.2999 516.244C20.9839 507.111 13.7685 496.516 8.65387 484.46C3.5392 472.221 0.981868 459.069 0.981868 445.004C0.981868 430.756 3.5392 417.604 8.65387 405.548C13.7685 393.492 20.8925 382.989 30.0259 374.038C39.1592 364.905 49.8452 357.872 62.0839 352.94C74.5052 347.825 88.0225 345.268 102.636 345.268C117.067 345.268 130.401 347.825 142.64 352.94C155.061 357.872 165.839 364.905 174.972 374.038C184.288 382.989 191.503 393.583 196.618 405.822C201.733 417.878 204.29 431.03 204.29 445.278C204.29 459.343 201.733 472.495 196.618 484.734C191.503 496.79 184.379 507.385 175.246 516.518C166.113 525.469 155.335 532.501 142.914 537.616C130.675 542.731 117.432 545.288 103.184 545.288ZM102.636 506.106C114.144 506.106 124.191 503.549 132.776 498.434C141.544 493.319 148.303 486.195 153.052 477.062C157.801 467.746 160.176 457.06 160.176 445.004C160.176 435.871 158.806 427.651 156.066 420.344C153.326 412.855 149.399 406.461 144.284 401.164C139.169 395.684 133.05 391.574 125.926 388.834C118.985 385.911 111.221 384.45 102.636 384.45C91.1279 384.45 80.9899 387.007 72.2219 392.122C63.6365 397.054 56.9692 404.087 52.2199 413.22C47.4705 422.171 45.0959 432.765 45.0959 445.004C45.0959 454.137 46.4659 462.449 49.2059 469.938C51.9459 477.427 55.7819 483.912 60.7139 489.392C65.8285 494.689 71.9479 498.799 79.0719 501.722C86.1959 504.645 94.0505 506.106 102.636 506.106ZM231.598 542V348.556H274.616V542H231.598ZM264.478 466.102V429.112H361.2V466.102H264.478ZM264.478 385.546V348.556H365.584V385.546H264.478ZM485.838 542V351.296H528.856V542H485.838ZM425.284 386.094V348.556H589.41V386.094H425.284ZM613.432 542V348.556H656.45V542H613.432ZM733.17 542V348.556H776.462V542H733.17ZM639.188 461.17V423.906H747.418V461.17H639.188ZM813.58 542V348.556H856.598V542H813.58ZM846.46 542V504.736H952.498V542H846.46ZM846.46 461.17V425.276H942.908V461.17H846.46ZM846.46 385.546V348.556H951.128V385.546H846.46Z" fill="#001A4F"/>
<path d="M1125.57 545.014C1111.51 545.014 1098.27 542.457 1085.84 537.342C1073.61 532.227 1062.92 525.195 1053.79 516.244C1044.65 507.111 1037.44 496.516 1032.14 484.46C1027.03 472.221 1024.47 459.069 1024.47 445.004C1024.47 430.939 1027.12 417.878 1032.41 405.822C1037.71 393.766 1045.02 383.263 1054.33 374.312C1063.83 365.179 1074.88 358.146 1087.49 353.214C1100.09 348.099 1113.61 345.542 1128.04 345.542C1144.66 345.542 1159.73 348.556 1173.25 354.584C1186.95 360.612 1198.28 368.923 1207.23 379.518L1177.91 408.836C1171.7 400.799 1164.39 394.771 1155.99 390.752C1147.59 386.733 1138.09 384.724 1127.49 384.724C1116.17 384.724 1106.03 387.281 1097.08 392.396C1088.13 397.328 1081.09 404.361 1075.98 413.494C1071.05 422.445 1068.58 432.948 1068.58 445.004C1068.58 457.06 1071.05 467.655 1075.98 476.788C1080.91 485.921 1087.67 493.045 1096.26 498.16C1104.84 503.275 1114.71 505.832 1125.85 505.832C1137.17 505.832 1146.76 503.731 1154.62 499.53C1162.66 495.146 1168.77 488.935 1172.98 480.898C1177.36 472.678 1179.55 462.723 1179.55 451.032L1208.05 470.212L1121.74 468.842V432.4H1223.39V438.702C1223.39 461.901 1219.19 481.446 1210.79 497.338C1202.57 513.047 1191.06 524.921 1176.26 532.958C1161.65 540.995 1144.75 545.014 1125.57 545.014ZM1226.65 542L1303.37 348.556H1342.28L1418.17 542H1372.69L1314.6 381.436H1330.22L1271.31 542H1226.65ZM1270.21 506.928V471.856H1375.7V506.928H1270.21ZM1438.64 542V348.556H1469.33L1545.5 467.198H1529.88L1605.78 348.556H1636.74V542H1593.73V421.166L1601.4 423.084L1551.8 500.352H1523.31L1473.99 423.084L1481.39 421.166V542H1438.64ZM1673.84 542V348.556H1716.86V542H1673.84ZM1706.72 542V504.736H1812.76V542H1706.72ZM1706.72 461.17V425.276H1803.17V461.17H1706.72ZM1706.72 385.546V348.556H1811.39V385.546H1706.72Z" fill="#3692FF"/>
</svg>
