<svg width="177" height="165" viewBox="0 0 177 165" fill="none" xmlns="http://www.w3.org/2000/svg">
<rect x="113.902" y="57.0273" width="37.6703" height="101.973" rx="18.8351" transform="rotate(30.1559 113.902 57.0273)" fill="url(#paint0_linear_648_232)"/>
<rect x="80.8633" width="38.7866" height="114.977" rx="19.3933" transform="rotate(30.1559 80.8633 0)" fill="url(#paint1_linear_648_232)"/>
<rect x="80.8633" width="38.7866" height="114.977" rx="19.3933" transform="rotate(30.1559 80.8633 0)" fill="url(#paint2_linear_648_232)"/>
<rect x="18.4492" y="112.742" width="36.0144" height="36.7281" rx="18.0072" transform="rotate(30.1559 18.4492 112.742)" fill="url(#paint3_linear_648_232)"/>
<rect x="145.203" y="112.742" width="36.0144" height="36.7281" rx="18.0072" transform="rotate(30.1559 145.203 112.742)" fill="url(#paint4_linear_648_232)"/>
<defs>
<linearGradient id="paint0_linear_648_232" x1="132.737" y1="57.0273" x2="132.737" y2="159.001" gradientUnits="userSpaceOnUse">
<stop stop-color="#4FE9C7"/>
<stop offset="0.515625" stop-color="#35D8DF"/>
<stop offset="1" stop-color="#0ACBF9"/>
</linearGradient>
<linearGradient id="paint1_linear_648_232" x1="100.257" y1="0" x2="100.257" y2="114.977" gradientUnits="userSpaceOnUse">
<stop offset="0.0677083" stop-color="#80F5A7"/>
<stop offset="0.510417" stop-color="#5DE9C0"/>
<stop offset="1" stop-color="#33DFE1"/>
</linearGradient>
<linearGradient id="paint2_linear_648_232" x1="100.257" y1="0" x2="100.257" y2="114.977" gradientUnits="userSpaceOnUse">
<stop offset="0.0677083" stop-color="#80F5A7"/>
<stop offset="0.510417" stop-color="#5DE9C0"/>
<stop offset="1" stop-color="#33DFE1"/>
</linearGradient>
<linearGradient id="paint3_linear_648_232" x1="36.4564" y1="112.742" x2="35.3819" y2="166.327" gradientUnits="userSpaceOnUse">
<stop stop-color="#11CDF3"/>
<stop offset="1" stop-color="#21D5E6"/>
</linearGradient>
<linearGradient id="paint4_linear_648_232" x1="163.21" y1="112.742" x2="162.136" y2="166.327" gradientUnits="userSpaceOnUse">
<stop stop-color="#0DCEF6"/>
<stop offset="1" stop-color="#21D5E6"/>
</linearGradient>
</defs>
</svg>
