<svg width="2082" height="783" viewBox="0 0 2082 783" fill="none" xmlns="http://www.w3.org/2000/svg">
<path d="M184.95 510.288C170.336 510.288 156.819 507.73 144.397 502.616C132.159 497.501 121.381 490.377 112.065 481.244C102.749 472.11 95.5342 461.516 90.4195 449.46C85.3048 437.221 82.7475 424.069 82.7475 410.004C82.7475 395.756 85.3048 382.604 90.4195 370.548C95.5342 358.492 102.658 347.988 111.791 339.038C120.925 329.904 131.611 322.872 143.849 317.94C156.271 312.825 169.788 310.268 184.401 310.268C198.832 310.268 212.167 312.825 224.405 317.94C236.827 322.872 247.604 329.904 256.738 339.038C266.054 347.988 273.269 358.583 278.384 370.822C283.498 382.878 286.056 396.03 286.056 410.278C286.056 424.343 283.498 437.495 278.384 449.734C273.269 461.79 266.145 472.384 257.012 481.518C247.878 490.468 237.101 497.501 224.679 502.616C212.441 507.73 199.197 510.288 184.95 510.288ZM184.401 471.106C195.909 471.106 205.956 468.548 214.541 463.434C223.31 458.319 230.068 451.195 234.817 442.062C239.567 432.746 241.942 422.06 241.942 410.004C241.942 400.87 240.572 392.65 237.832 385.344C235.091 377.854 231.164 371.461 226.049 366.164C220.935 360.684 214.815 356.574 207.692 353.834C200.75 350.911 192.987 349.45 184.401 349.45C172.893 349.45 162.755 352.007 153.987 357.122C145.402 362.054 138.735 369.086 133.985 378.22C129.236 387.17 126.861 397.765 126.861 410.004C126.861 419.137 128.231 427.448 130.971 434.938C133.711 442.427 137.547 448.912 142.479 454.392C147.594 459.689 153.713 463.799 160.837 466.722C167.961 469.644 175.816 471.106 184.401 471.106ZM391.179 510.014C375.287 510.014 361.222 506.634 348.983 499.876C336.927 493.117 327.429 483.801 320.487 471.928C313.729 459.872 310.349 446.172 310.349 430.828V313.556H353.641V433.294C353.641 440.966 355.285 447.633 358.573 453.296C361.861 458.958 366.337 463.342 371.999 466.448C377.845 469.37 384.238 470.832 391.179 470.832C398.486 470.832 404.879 469.37 410.359 466.448C415.839 463.342 420.132 459.05 423.237 453.57C426.525 447.907 428.169 441.24 428.169 433.568V313.556H471.461V431.102C471.461 446.446 468.082 460.054 461.323 471.928C454.565 483.801 445.157 493.117 433.101 499.876C421.045 506.634 407.071 510.014 391.179 510.014ZM538.632 427.266V395.482H579.458C588.043 395.482 594.619 393.29 599.186 388.906C603.935 384.522 606.31 378.585 606.31 371.096C606.31 364.154 604.027 358.4 599.46 353.834C594.893 349.267 588.317 346.984 579.732 346.984H538.632V313.556H584.664C597.451 313.556 608.685 316.022 618.366 320.954C628.047 325.703 635.628 332.37 641.108 340.956C646.588 349.541 649.328 359.405 649.328 370.548C649.328 381.873 646.588 391.828 641.108 400.414C635.628 408.816 627.956 415.392 618.092 420.142C608.228 424.891 596.629 427.266 583.294 427.266H538.632ZM505.752 507V313.556H548.77V507H505.752ZM610.968 507L550.688 423.704L590.144 413.018L661.932 507H610.968Z" fill="#001A4F"/>
<path d="M794.76 510.014C778.868 510.014 765.168 507.456 753.66 502.342C742.335 497.044 731.923 489.098 722.424 478.504L750.372 450.83C756.583 457.954 763.433 463.525 770.922 467.544C778.594 471.38 787.453 473.298 797.5 473.298C806.633 473.298 813.666 471.654 818.598 468.366C823.713 465.078 826.27 460.511 826.27 454.666C826.27 449.368 824.626 445.076 821.338 441.788C818.05 438.5 813.666 435.668 808.186 433.294C802.889 430.919 796.952 428.636 790.376 426.444C783.983 424.252 777.589 421.786 771.196 419.046C764.803 416.123 758.866 412.561 753.386 408.36C748.089 403.976 743.796 398.587 740.508 392.194C737.22 385.618 735.576 377.398 735.576 367.534C735.576 355.66 738.407 345.431 744.07 336.846C749.915 328.26 757.953 321.776 768.182 317.392C778.411 312.825 790.193 310.542 803.528 310.542C817.045 310.542 829.375 312.916 840.518 317.666C851.843 322.415 861.159 328.9 868.466 337.12L840.518 364.794C834.673 358.766 828.736 354.29 822.708 351.368C816.863 348.445 810.195 346.984 802.706 346.984C795.217 346.984 789.28 348.445 784.896 351.368C780.512 354.108 778.32 358.126 778.32 363.424C778.32 368.356 779.964 372.374 783.252 375.48C786.54 378.402 790.833 380.96 796.13 383.152C801.61 385.344 807.547 387.536 813.94 389.728C820.516 391.92 827.001 394.477 833.394 397.4C839.787 400.322 845.633 404.067 850.93 408.634C856.41 413.018 860.794 418.68 864.082 425.622C867.37 432.38 869.014 440.783 869.014 450.83C869.014 469.279 862.438 483.801 849.286 494.396C836.134 504.808 817.959 510.014 794.76 510.014ZM896.416 507V313.556H939.434V507H896.416ZM929.296 507V469.736H1035.33V507H929.296ZM929.296 426.17V390.276H1025.74V426.17H929.296ZM929.296 350.546V313.556H1033.96V350.546H929.296ZM1097.87 427.266V395.482H1138.7C1147.28 395.482 1153.86 393.29 1158.42 388.906C1163.17 384.522 1165.55 378.585 1165.55 371.096C1165.55 364.154 1163.27 358.4 1158.7 353.834C1154.13 349.267 1147.56 346.984 1138.97 346.984H1097.87V313.556H1143.9C1156.69 313.556 1167.92 316.022 1177.6 320.954C1187.29 325.703 1194.87 332.37 1200.35 340.956C1205.83 349.541 1208.57 359.405 1208.57 370.548C1208.57 381.873 1205.83 391.828 1200.35 400.414C1194.87 408.816 1187.19 415.392 1177.33 420.142C1167.47 424.891 1155.87 427.266 1142.53 427.266H1097.87ZM1064.99 507V313.556H1108.01V507H1064.99ZM1170.21 507L1109.93 423.704L1149.38 413.018L1221.17 507H1170.21ZM1294.91 507L1220.39 313.556H1266.42L1323.14 470.01H1304.23L1361.77 313.556H1407.25L1331.9 507H1294.91ZM1429.97 507V313.556H1472.98V507H1429.97ZM1602.03 510.014C1587.6 510.014 1574.17 507.548 1561.75 502.616C1549.51 497.501 1538.74 490.377 1529.42 481.244C1520.29 472.11 1513.16 461.516 1508.05 449.46C1502.93 437.221 1500.38 424.069 1500.38 410.004C1500.38 395.938 1502.93 382.878 1508.05 370.822C1513.16 358.583 1520.29 347.988 1529.42 339.038C1538.55 330.087 1549.24 323.146 1561.48 318.214C1573.9 313.099 1587.33 310.542 1601.76 310.542C1617.1 310.542 1630.71 313.008 1642.58 317.94C1654.64 322.872 1665.14 329.63 1674.09 338.216L1645.32 367.26C1640.21 361.78 1634 357.487 1626.69 354.382C1619.57 351.276 1611.26 349.724 1601.76 349.724C1593.35 349.724 1585.59 351.185 1578.47 354.108C1571.53 356.848 1565.5 360.866 1560.38 366.164C1555.45 371.461 1551.52 377.854 1548.6 385.344C1545.86 392.833 1544.49 401.053 1544.49 410.004C1544.49 419.137 1545.86 427.448 1548.6 434.938C1551.52 442.427 1555.45 448.82 1560.38 454.118C1565.5 459.415 1571.53 463.525 1578.47 466.448C1585.59 469.37 1593.35 470.832 1601.76 470.832C1611.62 470.832 1620.21 469.279 1627.51 466.174C1634.82 463.068 1641.12 458.776 1646.42 453.296L1675.46 482.34C1666.15 490.925 1655.46 497.684 1643.4 502.616C1631.53 507.548 1617.74 510.014 1602.03 510.014ZM1699.15 507V313.556H1742.17V507H1699.15ZM1732.03 507V469.736H1838.07V507H1732.03ZM1732.03 426.17V390.276H1828.48V426.17H1732.03ZM1732.03 350.546V313.556H1836.7V350.546H1732.03ZM1921 510.014C1905.1 510.014 1891.4 507.456 1879.9 502.342C1868.57 497.044 1858.16 489.098 1848.66 478.504L1876.61 450.83C1882.82 457.954 1889.67 463.525 1897.16 467.544C1904.83 471.38 1913.69 473.298 1923.74 473.298C1932.87 473.298 1939.9 471.654 1944.83 468.366C1949.95 465.078 1952.51 460.511 1952.51 454.666C1952.51 449.368 1950.86 445.076 1947.57 441.788C1944.29 438.5 1939.9 435.668 1934.42 433.294C1929.13 430.919 1923.19 428.636 1916.61 426.444C1910.22 424.252 1903.83 421.786 1897.43 419.046C1891.04 416.123 1885.1 412.561 1879.62 408.36C1874.33 403.976 1870.03 398.587 1866.74 392.194C1863.46 385.618 1861.81 377.398 1861.81 367.534C1861.81 355.66 1864.64 345.431 1870.31 336.846C1876.15 328.26 1884.19 321.776 1894.42 317.392C1904.65 312.825 1916.43 310.542 1929.76 310.542C1943.28 310.542 1955.61 312.916 1966.75 317.666C1978.08 322.415 1987.4 328.9 1994.7 337.12L1966.75 364.794C1960.91 358.766 1954.97 354.29 1948.94 351.368C1943.1 348.445 1936.43 346.984 1928.94 346.984C1921.45 346.984 1915.52 348.445 1911.13 351.368C1906.75 354.108 1904.56 358.126 1904.56 363.424C1904.56 368.356 1906.2 372.374 1909.49 375.48C1912.78 378.402 1917.07 380.96 1922.37 383.152C1927.85 385.344 1933.78 387.536 1940.18 389.728C1946.75 391.92 1953.24 394.477 1959.63 397.4C1966.02 400.322 1971.87 404.067 1977.17 408.634C1982.65 413.018 1987.03 418.68 1990.32 425.622C1993.61 432.38 1995.25 440.783 1995.25 450.83C1995.25 469.279 1988.67 483.801 1975.52 494.396C1962.37 504.808 1944.2 510.014 1921 510.014Z" fill="#3692FF"/>
<rect x="1447" y="614.368" width="635" height="168.573" rx="19" fill="#ECECEC"/>
<path d="M1539.12 721.621C1535.41 721.621 1532.23 720.941 1529.6 719.581C1526.97 718.221 1524.64 716.249 1522.6 713.665L1526.95 709.313C1528.45 711.399 1530.17 712.985 1532.12 714.073C1534.07 715.116 1536.47 715.637 1539.33 715.637C1542.14 715.637 1544.38 715.025 1546.06 713.801C1547.78 712.577 1548.64 710.9 1548.64 708.769C1548.64 707.001 1548.24 705.573 1547.42 704.485C1546.6 703.397 1545.49 702.513 1544.09 701.833C1542.73 701.108 1541.23 700.473 1539.6 699.929C1537.97 699.34 1536.34 698.728 1534.7 698.093C1533.07 697.413 1531.58 696.597 1530.22 695.645C1528.86 694.648 1527.75 693.356 1526.88 691.769C1526.07 690.183 1525.66 688.188 1525.66 685.785C1525.66 683.111 1526.29 680.844 1527.56 678.985C1528.88 677.081 1530.65 675.631 1532.87 674.633C1535.13 673.591 1537.67 673.069 1540.48 673.069C1543.57 673.069 1546.33 673.681 1548.78 674.905C1551.23 676.084 1553.22 677.648 1554.76 679.597L1550.41 683.949C1549.01 682.317 1547.49 681.093 1545.86 680.277C1544.27 679.461 1542.43 679.053 1540.35 679.053C1537.81 679.053 1535.79 679.62 1534.3 680.753C1532.8 681.841 1532.05 683.383 1532.05 685.377C1532.05 686.964 1532.46 688.256 1533.28 689.253C1534.14 690.205 1535.25 691.021 1536.61 691.701C1537.97 692.381 1539.46 693.016 1541.1 693.605C1542.77 694.149 1544.43 694.761 1546.06 695.441C1547.69 696.121 1549.19 696.983 1550.55 698.025C1551.91 699.068 1553 700.428 1553.81 702.105C1554.67 703.737 1555.1 705.8 1555.1 708.293C1555.1 712.464 1553.65 715.728 1550.75 718.085C1547.9 720.443 1544.02 721.621 1539.12 721.621ZM1567.59 720.941V675.109H1573.71V720.941H1567.59ZM1559.64 694.217V688.641H1581.67V694.217H1559.64ZM1601.43 721.621C1598.25 721.621 1595.4 720.873 1592.86 719.377C1590.32 717.881 1588.3 715.864 1586.81 713.325C1585.31 710.741 1584.56 707.863 1584.56 704.689C1584.56 701.561 1585.31 698.751 1586.81 696.257C1588.3 693.719 1590.32 691.701 1592.86 690.205C1595.4 688.709 1598.25 687.961 1601.43 687.961C1604.55 687.961 1607.39 688.709 1609.93 690.205C1612.51 691.656 1614.55 693.651 1616.05 696.189C1617.54 698.728 1618.29 701.561 1618.29 704.689C1618.29 707.863 1617.54 710.741 1616.05 713.325C1614.55 715.864 1612.51 717.881 1609.93 719.377C1607.39 720.873 1604.55 721.621 1601.43 721.621ZM1601.43 715.705C1603.47 715.705 1605.28 715.229 1606.87 714.277C1608.45 713.325 1609.7 712.033 1610.61 710.401C1611.51 708.724 1611.97 706.82 1611.97 704.689C1611.97 702.604 1611.49 700.745 1610.54 699.113C1609.63 697.481 1608.38 696.212 1606.8 695.305C1605.26 694.353 1603.47 693.877 1601.43 693.877C1599.39 693.877 1597.57 694.353 1595.99 695.305C1594.4 696.212 1593.15 697.481 1592.25 699.113C1591.34 700.745 1590.89 702.604 1590.89 704.689C1590.89 706.82 1591.34 708.724 1592.25 710.401C1593.15 712.033 1594.4 713.325 1595.99 714.277C1597.57 715.229 1599.39 715.705 1601.43 715.705ZM1639.94 721.621C1636.77 721.621 1633.89 720.873 1631.31 719.377C1628.77 717.881 1626.75 715.864 1625.25 713.325C1623.8 710.741 1623.08 707.885 1623.08 704.757C1623.08 701.584 1623.8 698.728 1625.25 696.189C1626.75 693.651 1628.77 691.656 1631.31 690.205C1633.89 688.709 1636.77 687.961 1639.94 687.961C1642.43 687.961 1644.75 688.437 1646.88 689.389C1649.01 690.296 1650.84 691.633 1652.39 693.401L1648.31 697.481C1647.31 696.303 1646.08 695.419 1644.63 694.829C1643.23 694.195 1641.66 693.877 1639.94 693.877C1637.9 693.877 1636.09 694.353 1634.5 695.305C1632.91 696.212 1631.67 697.481 1630.76 699.113C1629.85 700.745 1629.4 702.627 1629.4 704.757C1629.4 706.888 1629.85 708.769 1630.76 710.401C1631.67 712.033 1632.91 713.325 1634.5 714.277C1636.09 715.229 1637.9 715.705 1639.94 715.705C1641.66 715.705 1643.23 715.411 1644.63 714.821C1646.08 714.187 1647.33 713.28 1648.37 712.101L1652.39 716.181C1650.89 717.904 1649.05 719.241 1646.88 720.193C1644.75 721.145 1642.43 721.621 1639.94 721.621ZM1679.13 720.941L1664.03 704.417L1678.99 688.641H1686.4L1669.74 706.049L1670.01 702.513L1687.01 720.941H1679.13ZM1658.45 720.941V672.389H1664.57V720.941H1658.45ZM1725.23 721.621C1721.74 721.621 1718.62 720.851 1715.85 719.309C1713.13 717.723 1710.98 715.569 1709.39 712.849C1707.8 710.084 1707.01 706.956 1707.01 703.465V673.749H1713.4V703.329C1713.4 705.823 1713.92 707.976 1714.97 709.789C1716.01 711.603 1717.41 713.008 1719.18 714.005C1721 715.003 1723.01 715.501 1725.23 715.501C1727.55 715.501 1729.56 715.003 1731.29 714.005C1733.05 713.008 1734.44 711.603 1735.43 709.789C1736.48 707.976 1737 705.845 1737 703.397V673.749H1743.46V703.533C1743.46 707.024 1742.67 710.129 1741.08 712.849C1739.49 715.569 1737.34 717.723 1734.62 719.309C1731.9 720.851 1728.77 721.621 1725.23 721.621ZM1769.88 721.621C1767.44 721.621 1765.22 721.123 1763.22 720.125C1761.27 719.083 1759.71 717.655 1758.53 715.841C1757.35 714.028 1756.69 711.965 1756.56 709.653V699.929C1756.69 697.572 1757.35 695.509 1758.53 693.741C1759.75 691.928 1761.34 690.523 1763.29 689.525C1765.28 688.483 1767.48 687.961 1769.88 687.961C1772.83 687.961 1775.48 688.709 1777.84 690.205C1780.24 691.701 1782.12 693.719 1783.48 696.257C1784.84 698.796 1785.52 701.652 1785.52 704.825C1785.52 707.999 1784.84 710.855 1783.48 713.393C1782.12 715.932 1780.24 717.949 1777.84 719.445C1775.48 720.896 1772.83 721.621 1769.88 721.621ZM1768.86 715.841C1770.9 715.841 1772.7 715.365 1774.24 714.413C1775.78 713.461 1777 712.169 1777.91 710.537C1778.82 708.86 1779.27 706.933 1779.27 704.757C1779.27 702.627 1778.82 700.723 1777.91 699.045C1777 697.368 1775.78 696.076 1774.24 695.169C1772.7 694.217 1770.93 693.741 1768.93 693.741C1766.89 693.741 1765.1 694.217 1763.56 695.169C1762.02 696.076 1760.82 697.368 1759.96 699.045C1759.1 700.723 1758.66 702.649 1758.66 704.825C1758.66 706.956 1759.07 708.86 1759.89 710.537C1760.75 712.169 1761.95 713.461 1763.49 714.413C1765.08 715.365 1766.87 715.841 1768.86 715.841ZM1752.88 734.473V688.641H1759V697.141L1757.85 704.961L1759 712.849V734.473H1752.88ZM1806.13 721.621C1803.14 721.621 1800.46 720.896 1798.11 719.445C1795.75 717.949 1793.87 715.932 1792.46 713.393C1791.1 710.855 1790.42 707.999 1790.42 704.825C1790.42 701.652 1791.1 698.796 1792.46 696.257C1793.87 693.719 1795.75 691.701 1798.11 690.205C1800.46 688.709 1803.14 687.961 1806.13 687.961C1808.53 687.961 1810.71 688.483 1812.66 689.525C1814.61 690.523 1816.17 691.928 1817.35 693.741C1818.57 695.509 1819.25 697.572 1819.39 699.929V709.653C1819.25 711.965 1818.6 714.028 1817.42 715.841C1816.24 717.655 1814.68 719.083 1812.73 720.125C1810.78 721.123 1808.58 721.621 1806.13 721.621ZM1807.15 715.841C1809.19 715.841 1810.96 715.365 1812.45 714.413C1814 713.461 1815.2 712.169 1816.06 710.537C1816.92 708.86 1817.35 706.956 1817.35 704.825C1817.35 702.604 1816.9 700.677 1815.99 699.045C1815.13 697.413 1813.93 696.121 1812.39 695.169C1810.89 694.217 1809.12 693.741 1807.08 693.741C1805.04 693.741 1803.25 694.217 1801.71 695.169C1800.17 696.121 1798.95 697.436 1798.04 699.113C1797.18 700.745 1796.75 702.627 1796.75 704.757C1796.75 706.933 1797.18 708.86 1798.04 710.537C1798.95 712.169 1800.17 713.461 1801.71 714.413C1803.3 715.365 1805.11 715.841 1807.15 715.841ZM1823.13 720.941H1816.94V712.237L1818.1 704.349L1816.94 696.529V672.389H1823.13V720.941ZM1845.78 721.621C1842.83 721.621 1840.16 720.896 1837.75 719.445C1835.35 717.949 1833.45 715.932 1832.04 713.393C1830.68 710.855 1830 707.999 1830 704.825C1830 701.652 1830.68 698.796 1832.04 696.257C1833.45 693.719 1835.33 691.701 1837.68 690.205C1840.09 688.709 1842.78 687.961 1845.78 687.961C1848.22 687.961 1850.4 688.483 1852.3 689.525C1854.25 690.523 1855.82 691.928 1857 693.741C1858.18 695.509 1858.83 697.572 1858.97 699.929V709.653C1858.83 711.965 1858.18 714.028 1857 715.841C1855.86 717.655 1854.32 719.083 1852.37 720.125C1850.47 721.123 1848.27 721.621 1845.78 721.621ZM1846.8 715.841C1849.83 715.841 1852.28 714.821 1854.14 712.781C1856 710.696 1856.93 708.044 1856.93 704.825C1856.93 702.604 1856.5 700.677 1855.64 699.045C1854.82 697.368 1853.64 696.076 1852.1 695.169C1850.56 694.217 1848.77 693.741 1846.73 693.741C1844.69 693.741 1842.88 694.217 1841.29 695.169C1839.75 696.121 1838.52 697.436 1837.62 699.113C1836.76 700.745 1836.32 702.627 1836.32 704.757C1836.32 706.933 1836.76 708.86 1837.62 710.537C1838.52 712.169 1839.77 713.461 1841.36 714.413C1842.94 715.365 1844.76 715.841 1846.8 715.841ZM1856.52 720.941V712.237L1857.68 704.349L1856.52 696.529V688.641H1862.71V720.941H1856.52ZM1876.45 720.941V675.109H1882.57V720.941H1876.45ZM1868.49 694.217V688.641H1890.53V694.217H1868.49ZM1910.49 721.621C1907.27 721.621 1904.37 720.896 1901.78 719.445C1899.2 717.949 1897.16 715.932 1895.66 713.393C1894.17 710.855 1893.42 707.976 1893.42 704.757C1893.42 701.584 1894.14 698.728 1895.59 696.189C1897.09 693.651 1899.08 691.656 1901.58 690.205C1904.12 688.709 1906.95 687.961 1910.08 687.961C1913.07 687.961 1915.7 688.641 1917.97 690.001C1920.28 691.361 1922.07 693.243 1923.34 695.645C1924.65 698.048 1925.31 700.768 1925.31 703.805C1925.31 704.259 1925.29 704.757 1925.24 705.301C1925.2 705.8 1925.11 706.389 1924.97 707.069H1897.7V701.969H1921.71L1919.46 703.941C1919.46 701.765 1919.08 699.929 1918.31 698.433C1917.53 696.892 1916.45 695.713 1915.04 694.897C1913.64 694.036 1911.94 693.605 1909.94 693.605C1907.86 693.605 1906.02 694.059 1904.43 694.965C1902.85 695.872 1901.62 697.141 1900.76 698.773C1899.9 700.405 1899.47 702.332 1899.47 704.553C1899.47 706.82 1899.92 708.815 1900.83 710.537C1901.74 712.215 1903.03 713.529 1904.71 714.481C1906.38 715.388 1908.31 715.841 1910.49 715.841C1912.3 715.841 1913.95 715.524 1915.45 714.889C1916.99 714.255 1918.31 713.303 1919.39 712.033L1923.34 716.045C1921.8 717.859 1919.89 719.241 1917.63 720.193C1915.4 721.145 1913.02 721.621 1910.49 721.621ZM1942.25 721.621C1940.44 721.621 1938.71 721.395 1937.08 720.941C1935.5 720.443 1934.02 719.763 1932.66 718.901C1931.3 717.995 1930.12 716.929 1929.13 715.705L1933.07 711.761C1934.25 713.212 1935.61 714.3 1937.15 715.025C1938.69 715.705 1940.41 716.045 1942.32 716.045C1944.22 716.045 1945.7 715.728 1946.74 715.093C1947.78 714.413 1948.3 713.484 1948.3 712.305C1948.3 711.127 1947.87 710.22 1947.01 709.585C1946.19 708.905 1945.13 708.361 1943.81 707.953C1942.5 707.5 1941.09 707.069 1939.6 706.661C1938.15 706.208 1936.76 705.641 1935.45 704.961C1934.14 704.281 1933.05 703.352 1932.19 702.173C1931.37 700.995 1930.96 699.431 1930.96 697.481C1930.96 695.532 1931.44 693.855 1932.39 692.449C1933.34 690.999 1934.66 689.888 1936.33 689.117C1938.06 688.347 1940.12 687.961 1942.52 687.961C1945.06 687.961 1947.3 688.415 1949.25 689.321C1951.25 690.183 1952.88 691.497 1954.15 693.265L1950.21 697.209C1949.3 696.031 1948.17 695.124 1946.81 694.489C1945.49 693.855 1944 693.537 1942.32 693.537C1940.55 693.537 1939.19 693.855 1938.24 694.489C1937.33 695.079 1936.88 695.917 1936.88 697.005C1936.88 698.093 1937.29 698.932 1938.1 699.521C1938.92 700.111 1939.98 700.609 1941.3 701.017C1942.66 701.425 1944.06 701.856 1945.51 702.309C1946.96 702.717 1948.35 703.284 1949.66 704.009C1950.98 704.735 1952.04 705.709 1952.86 706.933C1953.72 708.157 1954.15 709.767 1954.15 711.761C1954.15 714.799 1953.06 717.201 1950.89 718.969C1948.76 720.737 1945.88 721.621 1942.25 721.621ZM1971.41 705.981L1971.34 693.061L1973.17 692.993C1974.76 692.993 1976.14 692.653 1977.32 691.973C1978.55 691.293 1979.5 690.364 1980.18 689.185C1980.86 688.007 1981.2 686.692 1981.2 685.241C1981.2 683.745 1980.86 682.431 1980.18 681.297C1979.54 680.164 1978.61 679.28 1977.39 678.645C1976.21 678.011 1974.81 677.693 1973.17 677.693C1971 677.693 1969.12 678.237 1967.53 679.325C1965.94 680.413 1964.67 681.955 1963.72 683.949L1959.23 680.209C1960.55 677.535 1962.43 675.449 1964.88 673.953C1967.37 672.457 1970.23 671.709 1973.45 671.709C1976.21 671.709 1978.66 672.276 1980.79 673.409C1982.92 674.497 1984.58 676.039 1985.75 678.033C1986.93 679.983 1987.52 682.249 1987.52 684.833C1987.52 687.191 1986.98 689.344 1985.89 691.293C1984.85 693.197 1983.35 694.784 1981.4 696.053C1979.5 697.277 1977.23 698.071 1974.6 698.433L1977.25 695.713L1976.71 705.981H1971.41ZM1973.99 721.621C1972.72 721.621 1971.66 721.191 1970.79 720.329C1969.98 719.468 1969.57 718.403 1969.57 717.133C1969.57 715.864 1969.98 714.821 1970.79 714.005C1971.66 713.144 1972.72 712.713 1973.99 712.713C1975.26 712.713 1976.3 713.144 1977.12 714.005C1977.98 714.821 1978.41 715.864 1978.41 717.133C1978.41 718.403 1977.98 719.468 1977.12 720.329C1976.3 721.191 1975.26 721.621 1973.99 721.621ZM1997.17 705.981L1996.29 672.389H2002.81L2001.93 705.981H1997.17ZM1999.48 721.621C1998.21 721.621 1997.17 721.191 1996.35 720.329C1995.54 719.468 1995.13 718.403 1995.13 717.133C1995.13 715.864 1995.54 714.821 1996.35 714.005C1997.17 713.144 1998.21 712.713 1999.48 712.713C2000.8 712.713 2001.86 713.144 2002.68 714.005C2003.49 714.821 2003.9 715.864 2003.9 717.133C2003.9 718.403 2003.49 719.468 2002.68 720.329C2001.86 721.191 2000.8 721.621 1999.48 721.621Z" fill="#001D57"/>
<path d="M1925.78 572L1895.05 619.777H1943.72L1925.78 572Z" fill="#ECECEC"/>
<rect x="741" y="168.573" width="741" height="168.573" rx="19" transform="rotate(-180 741 168.573)" fill="#ECECEC"/>
<path d="M69.6776 107V59.8075H76.0696V107H69.6776ZM100.142 107V59.8075H106.534V107H100.142ZM74.0296 85.5115V79.6635H101.706V85.5115H74.0296ZM131.357 107.68C128.184 107.68 125.328 106.932 122.789 105.436C120.251 103.94 118.233 101.922 116.737 99.3835C115.241 96.7995 114.493 93.9208 114.493 90.7475C114.493 87.6195 115.241 84.8088 116.737 82.3155C118.233 79.7768 120.251 77.7595 122.789 76.2635C125.328 74.7675 128.184 74.0195 131.357 74.0195C134.485 74.0195 137.319 74.7675 139.857 76.2635C142.441 77.7142 144.481 79.7088 145.977 82.2475C147.473 84.7862 148.221 87.6195 148.221 90.7475C148.221 93.9208 147.473 96.7995 145.977 99.3835C144.481 101.922 142.441 103.94 139.857 105.436C137.319 106.932 134.485 107.68 131.357 107.68ZM131.357 101.764C133.397 101.764 135.211 101.288 136.797 100.336C138.384 99.3835 139.631 98.0915 140.537 96.4595C141.444 94.7822 141.897 92.8782 141.897 90.7475C141.897 88.6622 141.421 86.8035 140.469 85.1715C139.563 83.5395 138.316 82.2702 136.729 81.3635C135.188 80.4115 133.397 79.9355 131.357 79.9355C129.317 79.9355 127.504 80.4115 125.917 81.3635C124.331 82.2702 123.084 83.5395 122.177 85.1715C121.271 86.8035 120.817 88.6622 120.817 90.7475C120.817 92.8782 121.271 94.7822 122.177 96.4595C123.084 98.0915 124.331 99.3835 125.917 100.336C127.504 101.288 129.317 101.764 131.357 101.764ZM163.435 107L150.651 74.6995H157.043L166.291 99.8595H164.251L173.431 74.6995H176.967L186.147 99.8595H184.107L193.355 74.6995H199.747L187.031 107H183.427L174.111 82.5875H176.355L166.971 107H163.435ZM219.332 107V74.6995H225.452V107H219.332ZM241.16 107V87.4835C241.16 85.0808 240.412 83.1995 238.916 81.8395C237.465 80.4342 235.629 79.7315 233.408 79.7315C231.912 79.7315 230.574 80.0488 229.396 80.6835C228.217 81.3182 227.265 82.2022 226.54 83.3355C225.814 84.4688 225.452 85.8288 225.452 87.4155L222.936 86.1915C222.936 83.7435 223.457 81.6128 224.5 79.7995C225.588 77.9862 227.061 76.5808 228.92 75.5835C230.778 74.5408 232.864 74.0195 235.176 74.0195C237.442 74.0195 239.482 74.5182 241.296 75.5155C243.154 76.5128 244.605 77.9182 245.648 79.7315C246.736 81.5448 247.28 83.6982 247.28 86.1915V107H241.16ZM262.988 107V87.4835C262.988 85.0808 262.24 83.1995 260.744 81.8395C259.293 80.4342 257.48 79.7315 255.304 79.7315C253.808 79.7315 252.448 80.0488 251.224 80.6835C250.045 81.3182 249.093 82.2022 248.368 83.3355C247.642 84.4688 247.28 85.8288 247.28 87.4155L243.812 86.1915C243.948 83.6982 244.605 81.5675 245.784 79.7995C247.008 77.9862 248.572 76.5808 250.476 75.5835C252.38 74.5408 254.465 74.0195 256.732 74.0195C259.089 74.0195 261.197 74.5182 263.056 75.5155C264.914 76.5128 266.388 77.9182 267.476 79.7315C268.609 81.5448 269.176 83.7208 269.176 86.2595V107H262.988ZM291.24 107.68C288.293 107.68 285.618 106.954 283.216 105.504C280.813 104.008 278.909 101.99 277.504 99.4515C276.144 96.9128 275.464 94.0568 275.464 90.8835C275.464 87.7102 276.144 84.8542 277.504 82.3155C278.909 79.7768 280.79 77.7595 283.148 76.2635C285.55 74.7675 288.248 74.0195 291.24 74.0195C293.688 74.0195 295.864 74.5408 297.768 75.5835C299.717 76.5808 301.281 77.9862 302.46 79.7995C303.638 81.5675 304.296 83.6302 304.432 85.9875V95.7115C304.296 98.0235 303.638 100.086 302.46 101.9C301.326 103.713 299.785 105.141 297.836 106.184C295.932 107.181 293.733 107.68 291.24 107.68ZM292.26 101.9C295.297 101.9 297.745 100.88 299.604 98.8395C301.462 96.7542 302.392 94.1022 302.392 90.8835C302.392 88.6622 301.961 86.7355 301.1 85.1035C300.284 83.4262 299.105 82.1342 297.564 81.2275C296.022 80.2755 294.232 79.7995 292.192 79.7995C290.152 79.7995 288.338 80.2755 286.752 81.2275C285.21 82.1795 283.986 83.4942 283.08 85.1715C282.218 86.8035 281.788 88.6848 281.788 90.8155C281.788 92.9915 282.218 94.9182 283.08 96.5955C283.986 98.2275 285.233 99.5195 286.82 100.472C288.406 101.424 290.22 101.9 292.26 101.9ZM301.984 107V98.2955L303.14 90.4075L301.984 82.5875V74.6995H308.172V107H301.984ZM327.69 107.272L313.682 74.6995H320.482L330.886 100.2H328.71L339.658 74.6995H346.458L331.362 107.272H327.69ZM318.442 120.532L327.962 101.016L331.362 107.272L325.242 120.532H318.442ZM367.244 107V59.8075H373.636V107H367.244ZM420.68 107V88.1635C420.68 85.7155 419.909 83.6982 418.368 82.1115C416.826 80.5248 414.832 79.7315 412.384 79.7315C410.752 79.7315 409.301 80.0942 408.032 80.8195C406.762 81.5448 405.765 82.5422 405.04 83.8115C404.314 85.0808 403.952 86.5315 403.952 88.1635L401.436 86.7355C401.436 84.2875 401.98 82.1115 403.068 80.2075C404.156 78.3035 405.674 76.8075 407.624 75.7195C409.573 74.5862 411.772 74.0195 414.22 74.0195C416.668 74.0195 418.821 74.5635 420.68 75.6515C422.584 76.7395 424.08 78.2582 425.168 80.2075C426.256 82.1568 426.8 84.4008 426.8 86.9395V107H420.68ZM397.832 107V58.4475H403.952V107H397.832ZM450.046 107.68C446.827 107.68 443.926 106.954 441.342 105.504C438.758 104.008 436.718 101.99 435.222 99.4515C433.726 96.9128 432.978 94.0342 432.978 90.8155C432.978 87.6422 433.703 84.7862 435.154 82.2475C436.65 79.7088 438.644 77.7142 441.138 76.2635C443.676 74.7675 446.51 74.0195 449.638 74.0195C452.63 74.0195 455.259 74.6995 457.526 76.0595C459.838 77.4195 461.628 79.3008 462.898 81.7035C464.212 84.1062 464.87 86.8262 464.87 89.8635C464.87 90.3168 464.847 90.8155 464.802 91.3595C464.756 91.8582 464.666 92.4475 464.53 93.1275H437.262V88.0275H461.266L459.022 89.9995C459.022 87.8235 458.636 85.9875 457.866 84.4915C457.095 82.9502 456.007 81.7715 454.602 80.9555C453.196 80.0942 451.496 79.6635 449.502 79.6635C447.416 79.6635 445.58 80.1168 443.994 81.0235C442.407 81.9302 441.183 83.1995 440.322 84.8315C439.46 86.4635 439.03 88.3902 439.03 90.6115C439.03 92.8782 439.483 94.8728 440.39 96.5955C441.296 98.2728 442.588 99.5875 444.266 100.54C445.943 101.446 447.87 101.9 450.046 101.9C451.859 101.9 453.514 101.582 455.01 100.948C456.551 100.313 457.866 99.3608 458.954 98.0915L462.898 102.104C461.356 103.917 459.452 105.3 457.186 106.252C454.964 107.204 452.584 107.68 450.046 107.68ZM471.543 107V58.4475H477.663V107H471.543ZM503.617 107.68C501.169 107.68 498.948 107.181 496.953 106.184C495.004 105.141 493.44 103.713 492.261 101.9C491.082 100.086 490.425 98.0235 490.289 95.7115V85.9875C490.425 83.6302 491.082 81.5675 492.261 79.7995C493.485 77.9862 495.072 76.5808 497.021 75.5835C499.016 74.5408 501.214 74.0195 503.617 74.0195C506.564 74.0195 509.216 74.7675 511.573 76.2635C513.976 77.7595 515.857 79.7768 517.217 82.3155C518.577 84.8542 519.257 87.7102 519.257 90.8835C519.257 94.0568 518.577 96.9128 517.217 99.4515C515.857 101.99 513.976 104.008 511.573 105.504C509.216 106.954 506.564 107.68 503.617 107.68ZM502.597 101.9C504.637 101.9 506.428 101.424 507.969 100.472C509.51 99.5195 510.734 98.2275 511.641 96.5955C512.548 94.9182 513.001 92.9915 513.001 90.8155C513.001 88.6848 512.548 86.7808 511.641 85.1035C510.734 83.4262 509.51 82.1342 507.969 81.2275C506.428 80.2755 504.66 79.7995 502.665 79.7995C500.625 79.7995 498.834 80.2755 497.293 81.2275C495.752 82.1342 494.55 83.4262 493.689 85.1035C492.828 86.7808 492.397 88.7075 492.397 90.8835C492.397 93.0142 492.805 94.9182 493.621 96.5955C494.482 98.2275 495.684 99.5195 497.225 100.472C498.812 101.424 500.602 101.9 502.597 101.9ZM486.617 120.532V74.6995H492.737V83.1995L491.581 91.0195L492.737 98.9075V120.532H486.617ZM550.948 107.272L536.94 74.6995H543.74L554.144 100.2H551.968L562.916 74.6995H569.716L554.62 107.272H550.948ZM541.7 120.532L551.22 101.016L554.62 107.272L548.5 120.532H541.7ZM588.232 107.68C585.059 107.68 582.203 106.932 579.664 105.436C577.126 103.94 575.108 101.922 573.612 99.3835C572.116 96.7995 571.368 93.9208 571.368 90.7475C571.368 87.6195 572.116 84.8088 573.612 82.3155C575.108 79.7768 577.126 77.7595 579.664 76.2635C582.203 74.7675 585.059 74.0195 588.232 74.0195C591.36 74.0195 594.194 74.7675 596.732 76.2635C599.316 77.7142 601.356 79.7088 602.852 82.2475C604.348 84.7862 605.096 87.6195 605.096 90.7475C605.096 93.9208 604.348 96.7995 602.852 99.3835C601.356 101.922 599.316 103.94 596.732 105.436C594.194 106.932 591.36 107.68 588.232 107.68ZM588.232 101.764C590.272 101.764 592.086 101.288 593.672 100.336C595.259 99.3835 596.506 98.0915 597.412 96.4595C598.319 94.7822 598.772 92.8782 598.772 90.7475C598.772 88.6622 598.296 86.8035 597.344 85.1715C596.438 83.5395 595.191 82.2702 593.604 81.3635C592.063 80.4115 590.272 79.9355 588.232 79.9355C586.192 79.9355 584.379 80.4115 582.792 81.3635C581.206 82.2702 579.959 83.5395 579.052 85.1715C578.146 86.8035 577.692 88.6622 577.692 90.7475C577.692 92.8782 578.146 94.7822 579.052 96.4595C579.959 98.0915 581.206 99.3835 582.792 100.336C584.379 101.288 586.192 101.764 588.232 101.764ZM624.98 107.68C622.351 107.68 619.971 107.09 617.84 105.912C615.755 104.688 614.123 103.01 612.944 100.88C611.765 98.7488 611.176 96.2782 611.176 93.4675V74.6995H617.296V93.1955C617.296 94.9635 617.591 96.5048 618.18 97.8195C618.815 99.0888 619.721 100.064 620.9 100.744C622.079 101.424 623.461 101.764 625.048 101.764C627.451 101.764 629.332 101.016 630.692 99.5195C632.052 97.9782 632.732 95.8702 632.732 93.1955V74.6995H638.852V93.4675C638.852 96.2782 638.263 98.7488 637.084 100.88C635.905 103.01 634.273 104.688 632.188 105.912C630.148 107.09 627.745 107.68 624.98 107.68ZM657.458 92.0395L657.39 79.1195L659.226 79.0515C660.813 79.0515 662.196 78.7115 663.374 78.0315C664.598 77.3515 665.55 76.4222 666.23 75.2435C666.91 74.0648 667.25 72.7502 667.25 71.2995C667.25 69.8035 666.91 68.4888 666.23 67.3555C665.596 66.2222 664.666 65.3382 663.442 64.7035C662.264 64.0688 660.858 63.7515 659.226 63.7515C657.05 63.7515 655.169 64.2955 653.582 65.3835C651.996 66.4715 650.726 68.0128 649.774 70.0075L645.286 66.2675C646.601 63.5928 648.482 61.5075 650.93 60.0115C653.424 58.5155 656.28 57.7675 659.498 57.7675C662.264 57.7675 664.712 58.3342 666.842 59.4675C668.973 60.5555 670.628 62.0968 671.806 64.0915C672.985 66.0408 673.574 68.3075 673.574 70.8915C673.574 73.2488 673.03 75.4022 671.942 77.3515C670.9 79.2555 669.404 80.8422 667.454 82.1115C665.55 83.3355 663.284 84.1288 660.654 84.4915L663.306 81.7715L662.762 92.0395H657.458ZM660.042 107.68C658.773 107.68 657.708 107.249 656.846 106.388C656.03 105.526 655.622 104.461 655.622 103.192C655.622 101.922 656.03 100.88 656.846 100.064C657.708 99.2022 658.773 98.7715 660.042 98.7715C661.312 98.7715 662.354 99.2022 663.17 100.064C664.032 100.88 664.462 101.922 664.462 103.192C664.462 104.461 664.032 105.526 663.17 106.388C662.354 107.249 661.312 107.68 660.042 107.68Z" fill="#001D57"/>
<path d="M182.302 210.941L218.152 163.164L161.36 163.164L182.302 210.941Z" fill="#ECECEC"/>
</svg>
