<svg width="1817" height="546" viewBox="0 0 1817 546" fill="none" xmlns="http://www.w3.org/2000/svg">
<path d="M72.72 200.014C56.828 200.014 43.128 197.457 31.62 192.342C20.2947 187.045 9.88267 179.099 0.384 168.504L28.332 140.83C34.5427 147.954 41.3927 153.525 48.882 157.544C56.554 161.38 65.4133 163.298 75.46 163.298C84.5933 163.298 91.626 161.654 96.558 158.366C101.673 155.078 104.23 150.511 104.23 144.666C104.23 139.369 102.586 135.076 99.298 131.788C96.01 128.5 91.626 125.669 86.146 123.294C80.8487 120.919 74.912 118.636 68.336 116.444C61.9427 114.252 55.5493 111.786 49.156 109.046C42.7627 106.123 36.826 102.561 31.346 98.36C26.0487 93.976 21.756 88.5873 18.468 82.194C15.18 75.618 13.536 67.398 13.536 57.534C13.536 45.6607 16.3673 35.4313 22.03 26.846C27.8753 18.2607 35.9127 11.776 46.142 7.39199C56.3713 2.82533 68.1533 0.541998 81.488 0.541998C95.0053 0.541998 107.335 2.91666 118.478 7.66599C129.803 12.4153 139.119 18.9 146.426 27.12L118.478 54.794C112.633 48.766 106.696 44.2907 100.668 41.368C94.8227 38.4453 88.1553 36.984 80.666 36.984C73.1767 36.984 67.24 38.4453 62.856 41.368C58.472 44.108 56.28 48.1267 56.28 53.424C56.28 58.356 57.924 62.3747 61.212 65.48C64.5 68.4027 68.7927 70.96 74.09 73.152C79.57 75.344 85.5067 77.536 91.9 79.728C98.476 81.92 104.961 84.4773 111.354 87.4C117.747 90.3227 123.593 94.0673 128.89 98.634C134.37 103.018 138.754 108.681 142.042 115.622C145.33 122.381 146.974 130.783 146.974 140.83C146.974 159.279 140.398 173.801 127.246 184.396C114.094 194.808 95.9187 200.014 72.72 200.014ZM214.554 197V6.29599H257.572V197H214.554ZM154 41.094V3.55599H318.126V41.094H154ZM303.811 197L380.531 3.55599H419.439L495.337 197H449.853L391.765 36.436H407.383L348.473 197H303.811ZM347.377 161.928V126.856H452.867V161.928H347.377ZM550.647 124.938L476.119 3.55599H525.987L583.253 101.648H551.195L608.461 3.55599H657.233L582.157 124.938H550.647ZM545.441 197V105.21H588.459V197H545.441ZM701.432 197L778.152 3.55599H817.06L892.958 197H847.474L789.386 36.436H805.004L746.094 197H701.432ZM744.998 161.928V126.856H850.488V161.928H744.998ZM913.427 197V3.55599H956.445V197H913.427ZM1033.16 197V3.55599H1076.46V197H1033.16ZM939.183 116.17V78.906H1047.41V116.17H939.183ZM1113.58 197V3.55599H1156.59V197H1113.58ZM1146.46 197V159.736H1252.49V197H1146.46ZM1146.46 116.17V80.276H1242.9V116.17H1146.46ZM1146.46 40.546V3.55599H1251.12V40.546H1146.46ZM1267.63 197L1344.35 3.55599H1383.26L1459.15 197H1413.67L1355.58 36.436H1371.2L1312.29 197H1267.63ZM1311.19 161.928V126.856H1416.68V161.928H1311.19ZM1508.67 197V159.188H1556.62C1568.31 159.188 1578.54 156.905 1587.3 152.338C1596.07 147.589 1602.83 140.739 1607.58 131.788C1612.33 122.837 1614.7 112.243 1614.7 100.004C1614.7 87.7653 1612.24 77.262 1607.31 68.494C1602.56 59.726 1595.8 52.9673 1587.03 48.218C1578.44 43.4687 1568.31 41.094 1556.62 41.094H1507.3V3.55599H1557.16C1571.78 3.55599 1585.2 5.93066 1597.44 10.68C1609.86 15.2467 1620.64 21.914 1629.77 30.682C1639.09 39.2673 1646.21 49.4967 1651.15 61.37C1656.26 73.0607 1658.82 86.03 1658.82 100.278C1658.82 114.343 1656.26 127.313 1651.15 139.186C1646.21 151.059 1639.18 161.289 1630.05 169.874C1620.91 178.459 1610.14 185.127 1597.72 189.876C1585.48 194.625 1572.14 197 1557.71 197H1508.67ZM1479.62 197V3.55599H1522.64V197H1479.62ZM106.97 545.288C92.3567 545.288 78.8393 542.731 66.418 537.616C54.1793 532.501 43.402 525.377 34.086 516.244C24.77 507.111 17.5547 496.516 12.44 484.46C7.32533 472.221 4.768 459.069 4.768 445.004C4.768 430.756 7.32533 417.604 12.44 405.548C17.5547 393.492 24.6787 382.989 33.812 374.038C42.9453 364.905 53.6313 357.872 65.87 352.94C78.2913 347.825 91.8087 345.268 106.422 345.268C120.853 345.268 134.187 347.825 146.426 352.94C158.847 357.872 169.625 364.905 178.758 374.038C188.074 382.989 195.289 393.583 200.404 405.822C205.519 417.878 208.076 431.03 208.076 445.278C208.076 459.343 205.519 472.495 200.404 484.734C195.289 496.79 188.165 507.385 179.032 516.518C169.899 525.469 159.121 532.501 146.7 537.616C134.461 542.731 121.218 545.288 106.97 545.288ZM106.422 506.106C117.93 506.106 127.977 503.549 136.562 498.434C145.33 493.319 152.089 486.195 156.838 477.062C161.587 467.746 163.962 457.06 163.962 445.004C163.962 435.871 162.592 427.651 159.852 420.344C157.112 412.855 153.185 406.461 148.07 401.164C142.955 395.684 136.836 391.574 129.712 388.834C122.771 385.911 115.007 384.45 106.422 384.45C94.914 384.45 84.776 387.007 76.008 392.122C67.4227 397.054 60.7553 404.087 56.006 413.22C51.2567 422.171 48.882 432.765 48.882 445.004C48.882 454.137 50.252 462.449 52.992 469.938C55.732 477.427 59.568 483.912 64.5 489.392C69.6147 494.689 75.734 498.799 82.858 501.722C89.982 504.645 97.8367 506.106 106.422 506.106ZM235.384 542V348.556H278.402V542H235.384ZM268.264 466.102V429.112H364.986V466.102H268.264ZM268.264 385.546V348.556H369.37V385.546H268.264ZM489.624 542V351.296H532.642V542H489.624ZM429.07 386.094V348.556H593.196V386.094H429.07ZM617.218 542V348.556H660.236V542H617.218ZM736.956 542V348.556H780.248V542H736.956ZM642.974 461.17V423.906H751.204V461.17H642.974ZM817.366 542V348.556H860.384V542H817.366ZM850.246 542V504.736H956.284V542H850.246ZM850.246 461.17V425.276H946.694V461.17H850.246ZM850.246 385.546V348.556H954.914V385.546H850.246Z" fill="#001A4F"/>
<path d="M1129.36 545.014C1115.29 545.014 1102.05 542.457 1089.63 537.342C1077.39 532.227 1066.71 525.195 1057.57 516.244C1048.44 507.111 1041.22 496.516 1035.93 484.46C1030.81 472.221 1028.25 459.069 1028.25 445.004C1028.25 430.939 1030.9 417.878 1036.2 405.822C1041.5 393.766 1048.8 383.263 1058.12 374.312C1067.62 365.179 1078.67 358.146 1091.27 353.214C1103.88 348.099 1117.4 345.542 1131.83 345.542C1148.45 345.542 1163.52 348.556 1177.04 354.584C1190.74 360.612 1202.06 368.923 1211.01 379.518L1181.69 408.836C1175.48 400.799 1168.18 394.771 1159.77 390.752C1151.37 386.733 1141.87 384.724 1131.28 384.724C1119.95 384.724 1109.81 387.281 1100.86 392.396C1091.91 397.328 1084.88 404.361 1079.77 413.494C1074.83 422.445 1072.37 432.948 1072.37 445.004C1072.37 457.06 1074.83 467.655 1079.77 476.788C1084.7 485.921 1091.46 493.045 1100.04 498.16C1108.63 503.275 1118.49 505.832 1129.63 505.832C1140.96 505.832 1150.55 503.731 1158.4 499.53C1166.44 495.146 1172.56 488.935 1176.76 480.898C1181.15 472.678 1183.34 462.723 1183.34 451.032L1211.83 470.212L1125.52 468.842V432.4H1227.18V438.702C1227.18 461.901 1222.98 481.446 1214.57 497.338C1206.35 513.047 1194.85 524.921 1180.05 532.958C1165.44 540.995 1148.54 545.014 1129.36 545.014ZM1230.43 542L1307.15 348.556H1346.06L1421.96 542H1376.48L1318.39 381.436H1334.01L1275.1 542H1230.43ZM1274 506.928V471.856H1379.49V506.928H1274ZM1442.43 542V348.556H1473.12L1549.29 467.198H1533.67L1609.57 348.556H1640.53V542H1597.51V421.166L1605.18 423.084L1555.59 500.352H1527.09L1477.77 423.084L1485.17 421.166V542H1442.43ZM1677.63 542V348.556H1720.65V542H1677.63ZM1710.51 542V504.736H1816.55V542H1710.51ZM1710.51 461.17V425.276H1806.96V461.17H1710.51ZM1710.51 385.546V348.556H1815.18V385.546H1710.51Z" fill="#3692FF"/>
</svg>
