<svg width="666" height="1117" viewBox="0 0 666 1117" fill="none" xmlns="http://www.w3.org/2000/svg">
<rect x="382.981" y="515.118" width="64.8133" height="760.415" rx="32.4067" transform="rotate(30.1559 382.981 515.118)" fill="url(#paint0_linear_165_361)"/>
<rect x="326.127" y="417" width="66.734" height="197.822" rx="33.367" transform="rotate(30.1559 326.127 417)" fill="url(#paint1_linear_165_361)"/>
<rect x="607.953" y="-68.0825" width="66.734" height="758.831" rx="33.367" transform="rotate(30.1559 607.953 -68.0825)" fill="url(#paint2_linear_165_361)"/>
<rect x="218.745" y="610.978" width="61.9643" height="63.1924" rx="30.9822" transform="rotate(30.1559 218.745 610.978)" fill="url(#paint3_linear_165_361)"/>
<rect x="436.828" y="610.978" width="61.9643" height="63.1924" rx="30.9822" transform="rotate(30.1559 436.828 610.978)" fill="url(#paint4_linear_165_361)"/>
<defs>
<linearGradient id="paint0_linear_165_361" x1="415.388" y1="515.118" x2="415.388" y2="1275.53" gradientUnits="userSpaceOnUse">
<stop stop-color="#4FE9C7"/>
<stop offset="0.515625" stop-color="#35D8DF"/>
<stop offset="1" stop-color="#0ACBF9"/>
</linearGradient>
<linearGradient id="paint1_linear_165_361" x1="359.494" y1="417" x2="359.494" y2="614.822" gradientUnits="userSpaceOnUse">
<stop offset="0.0677083" stop-color="#80F5A7"/>
<stop offset="0.510417" stop-color="#5DE9C0"/>
<stop offset="1" stop-color="#33DFE1"/>
</linearGradient>
<linearGradient id="paint2_linear_165_361" x1="641.32" y1="-68.0825" x2="641.32" y2="690.748" gradientUnits="userSpaceOnUse">
<stop offset="0.0677083" stop-color="#80F5A7"/>
<stop offset="0.510417" stop-color="#5DE9C0"/>
<stop offset="1" stop-color="#33DFE1"/>
</linearGradient>
<linearGradient id="paint3_linear_165_361" x1="249.727" y1="610.978" x2="247.879" y2="703.173" gradientUnits="userSpaceOnUse">
<stop stop-color="#11CDF3"/>
<stop offset="1" stop-color="#21D5E6"/>
</linearGradient>
<linearGradient id="paint4_linear_165_361" x1="467.81" y1="610.978" x2="465.961" y2="703.173" gradientUnits="userSpaceOnUse">
<stop stop-color="#0DCEF6"/>
<stop offset="1" stop-color="#21D5E6"/>
</linearGradient>
</defs>
</svg>
